@startuml

abstract class autobuses {
    - id : Int
    - conductor : String
    - ticket_precio_base : Double
    --Metodos--
    + {abstract} calcularSuperPrecio() : Double
}

class autobus_urbano {
    - ruta_A : Boolean
    --Metodos--
    + calculoTicketRuta(ruta_A, ticket_precio_base) : Double
}

class autobus_interurbano {
    - ruta : String
    - kilometros : Int
    --Metodos--
    + calculoTicket(ruta, kilometros, ticket_precio_base) : Double
}

class conductor {
    - nombre : String
    - salario : Double
}

autobuses <|-- autobus_interurbano
autobuses <|-- autobus_urbano
autobuses <|-- conductor

@enduml